# xmcd
#
# Track frame offsets: 
#        150
#        27872
#        47882
#
# Disc length: 872 seconds
#
# Revision: 1
# Processed by: cddbd v1.5.2PL0 Copyright (c) Steve Scherf et al.
# Submitted via: ExactAudioCopy v1.3
#
DISCID=1e036603
DTITLE=甲斐バンド - ナイト・ウェイブ CT15-5114
DYEAR=1900
DGENRE=Rock
TTITLE0=ナイト・ウェイブ
TTITLE1=破れたハートを売り物に
TTITLE2=呪縛の夜
EXTD=
EXTT0=
EXTT1=
EXTT2=
PLAYORDER=
